<?xml version="1.0" encoding="UTF-8" standalone="no"?>
<!-- Created with Inkscape (http://www.inkscape.org/) -->

<svg
   xmlns:dc="http://purl.org/dc/elements/1.1/"
   xmlns:cc="http://creativecommons.org/ns#"
   xmlns:rdf="http://www.w3.org/1999/02/22-rdf-syntax-ns#"
   xmlns:svg="http://www.w3.org/2000/svg"
   xmlns="http://www.w3.org/2000/svg"
   xmlns:xlink="http://www.w3.org/1999/xlink"
   xmlns:sodipodi="http://sodipodi.sourceforge.net/DTD/sodipodi-0.dtd"
   xmlns:inkscape="http://www.inkscape.org/namespaces/inkscape"
   width="86"
   height="86"
   id="svg2"
   version="1.1"
   inkscape:version="0.91 r13725"
   sodipodi:docname="BeRail2.svg"
   inkscape:export-filename="/home/mo/Dokumente/Icon für HipsterFish/berail2860.png"
   inkscape:export-xdpi="900"
   inkscape:export-ydpi="900">
  <defs
     id="defs4">
    <linearGradient
       id="linearGradient4659">
      <stop
         id="stop4661"
         offset="0"
         style="stop-color:#a1d5ff;stop-opacity:1" />
      <stop
         id="stop4663"
         offset="1"
         style="stop-color:#00dbf3;stop-opacity:1" />
    </linearGradient>
    <linearGradient
       id="linearGradient5860">
      <stop
         id="stop5862"
         offset="0"
         style="stop-color:#00f68f;stop-opacity:0.49402392" />
      <stop
         id="stop5864"
         offset="1"
         style="stop-color:#005f03;stop-opacity:0.23904383" />
    </linearGradient>
    <linearGradient
       id="linearGradient3789-6">
      <stop
         style="stop-color:#ffffff;stop-opacity:1"
         offset="0"
         id="stop3791-0" />
      <stop
         style="stop-color:#fdc3c3;stop-opacity:1"
         offset="1"
         id="stop3793-4" />
    </linearGradient>
    <clipPath
       id="clipPath3374"
       clipPathUnits="userSpaceOnUse">
      <path
         inkscape:connector-curvature="0"
         id="path3376"
         d="m 207.477,208.121 4707.61,0 0,4700.45 -4707.61,0 0,-4700.45 z" />
    </clipPath>
    <filter
       inkscape:menu-tooltip="In and out glow with a possible offset and colorizable flood"
       inkscape:menu="Shadows and Glows"
       inkscape:label="Cutout Glow"
       style="color-interpolation-filters:sRGB;"
       id="filter4579">
      <feOffset
         dy="3"
         dx="3"
         id="feOffset4581" />
      <feGaussianBlur
         stdDeviation="3"
         result="blur"
         id="feGaussianBlur4583" />
      <feFlood
         flood-color="rgb(0,0,0)"
         flood-opacity="1"
         result="flood"
         id="feFlood4585" />
      <feComposite
         in="flood"
         in2="SourceGraphic"
         operator="in"
         result="composite"
         id="feComposite4587" />
      <feBlend
         in="blur"
         in2="composite"
         mode="normal"
         id="feBlend4589" />
    </filter>
    <linearGradient
       inkscape:collect="always"
       xlink:href="#linearGradient3789-6"
       id="linearGradient4635"
       x1="0.30000001"
       y1="47"
       x2="85.699997"
       y2="47"
       gradientUnits="userSpaceOnUse"
       gradientTransform="matrix(0,1,-1,0,90,4)" />
    <filter
       style="color-interpolation-filters:sRGB;"
       inkscape:label="Blur"
       id="filter4939">
      <feGaussianBlur
         stdDeviation="8 8"
         result="blur"
         id="feGaussianBlur4941" />
    </filter>
    <linearGradient
       inkscape:collect="always"
       xlink:href="#linearGradient3789-6"
       id="linearGradient5082"
       gradientUnits="userSpaceOnUse"
       gradientTransform="matrix(0,0.86926441,-0.86926441,0,83.855427,9.6216307)"
       x1="86.032333"
       y1="47"
       x2="0.38586816"
       y2="47.418205" />
    <linearGradient
       inkscape:collect="always"
       xlink:href="#linearGradient3789-6"
       id="linearGradient5144"
       gradientUnits="userSpaceOnUse"
       gradientTransform="matrix(0,1,-1,0,90,0)"
       x1="0.30000001"
       y1="47"
       x2="85.699997"
       y2="47" />
    <filter
       inkscape:collect="always"
       style="color-interpolation-filters:sRGB"
       id="filter5566"
       x="-0.015323505"
       width="1.030647"
       y="-0.069529541"
       height="1.1390591">
      <feGaussianBlur
         inkscape:collect="always"
         stdDeviation="3.267078"
         id="feGaussianBlur5568" />
    </filter>
    <filter
       inkscape:collect="always"
       style="color-interpolation-filters:sRGB"
       id="filter5524"
       x="-0.0224807"
       width="1.0449615"
       y="-0.090310127"
       height="1.1806202">
      <feGaussianBlur
         inkscape:collect="always"
         stdDeviation="3.8122168"
         id="feGaussianBlur5526" />
    </filter>
    <inkscape:path-effect
       is_visible="true"
       id="path-effect4337"
       effect="spiro" />
    <inkscape:path-effect
       effect="spiro"
       id="path-effect4444"
       is_visible="true" />
    <inkscape:path-effect
       effect="spiro"
       id="path-effect4333"
       is_visible="true" />
    <inkscape:path-effect
       is_visible="true"
       id="path-effect4440"
       effect="spiro" />
    <inkscape:path-effect
       is_visible="true"
       id="path-effect4329"
       effect="spiro" />
    <inkscape:path-effect
       effect="spiro"
       id="path-effect4436"
       is_visible="true" />
    <inkscape:path-effect
       effect="spiro"
       id="path-effect4325"
       is_visible="true" />
    <inkscape:path-effect
       is_visible="true"
       id="path-effect4432"
       effect="spiro" />
    <inkscape:path-effect
       is_visible="true"
       id="path-effect4321"
       effect="spiro" />
    <inkscape:path-effect
       effect="spiro"
       id="path-effect4428"
       is_visible="true" />
    <inkscape:path-effect
       effect="spiro"
       id="path-effect4317"
       is_visible="true" />
    <inkscape:path-effect
       is_visible="true"
       id="path-effect4424"
       effect="spiro" />
    <inkscape:path-effect
       is_visible="true"
       id="path-effect4313"
       effect="spiro" />
    <inkscape:path-effect
       effect="spiro"
       id="path-effect4420"
       is_visible="true" />
    <inkscape:path-effect
       effect="spiro"
       id="path-effect4307"
       is_visible="true" />
    <inkscape:path-effect
       is_visible="true"
       id="path-effect4416"
       effect="spiro" />
    <inkscape:path-effect
       is_visible="true"
       id="path-effect4303"
       effect="spiro" />
    <inkscape:path-effect
       effect="spiro"
       id="path-effect4412"
       is_visible="true" />
    <inkscape:path-effect
       effect="spiro"
       id="path-effect4299"
       is_visible="true" />
    <inkscape:path-effect
       is_visible="true"
       id="path-effect4408"
       effect="spiro" />
    <inkscape:path-effect
       is_visible="true"
       id="path-effect4251-3"
       effect="spiro" />
    <inkscape:path-effect
       effect="spiro"
       id="path-effect4404"
       is_visible="true" />
  </defs>
  <sodipodi:namedview
     id="base"
     pagecolor="#ffffff"
     bordercolor="#666666"
     borderopacity="1.0"
     inkscape:pageopacity="0.0"
     inkscape:pageshadow="2"
     inkscape:zoom="4.3192471"
     inkscape:cx="3.9309759"
     inkscape:cy="43.369429"
     inkscape:document-units="px"
     inkscape:current-layer="g6942"
     showgrid="false"
     inkscape:window-width="1920"
     inkscape:window-height="1015"
     inkscape:window-x="0"
     inkscape:window-y="0"
     inkscape:window-maximized="1"
     inkscape:snap-bbox="true"
     inkscape:snap-global="true"
     showguides="true"
     inkscape:guide-bbox="true">
    <inkscape:grid
       type="xygrid"
       id="grid2985"
       empspacing="5"
       visible="true"
       enabled="true"
       snapvisiblegridlinesonly="true" />
  </sodipodi:namedview>
  <metadata
     id="metadata7">
    <rdf:RDF>
      <cc:Work
         rdf:about="">
        <dc:format>image/svg+xml</dc:format>
        <dc:type
           rdf:resource="http://purl.org/dc/dcmitype/StillImage" />
        <dc:title></dc:title>
      </cc:Work>
    </rdf:RDF>
  </metadata>
  <g
     inkscape:groupmode="layer"
     id="layer2"
     inkscape:label="Ebene"
     style="display:inline"
     transform="translate(0,-4)">
    <path
       inkscape:connector-curvature="0"
       style="opacity:1;fill:url(#linearGradient4635);fill-opacity:1"
       id="path5132"
       d="M 85.7,5.723 85.7,47 C 85.7,70.583 66.582,89.7 43,89.7 l -41.277,0 C 0.937,89.7 0.3,89.063 0.3,88.277 L 0.3,47 C 0.3,23.417 19.418,4.3 43,4.3 l 41.277,0 c 0.786,0 1.423,0.637 1.423,1.423 z" />
    <g
       transform="matrix(1.25,0,0,-1.25,-253.16188,384.69096)"
       inkscape:label="ink_ext_XXXXXX"
       id="g3366">
      <g
         transform="scale(0.1,0.1)"
         id="g3368" />
    </g>
    <g
       id="g4806"
       transform="translate(34.782611,61.739129)" />
    <path
       inkscape:connector-curvature="0"
       style="opacity:1;fill:url(#linearGradient5082);fill-opacity:1"
       id="path5080"
       d="M 80.11759,11.119373 80.11759,47 C 80.11759,67.499863 63.498993,84.11759 43,84.11759 l -35.8806268,0 C 6.4361314,84.11759 5.88241,83.563869 5.88241,82.880627 L 5.88241,47 C 5.88241,26.500137 22.501007,9.88241 43,9.88241 l 35.880627,0 c 0.683242,0 1.236963,0.553721 1.236963,1.236963 z" />
    <g
       id="g6942"
       transform="matrix(0.23657878,-0.02124854,0.02124854,0.23657878,109.50609,95.741459)">
      <g
         style="display:inline;fill:#784421;fill-opacity:1;stroke:none;stroke-width:2;stroke-opacity:1"
         id="g6075"
         transform="translate(-510.18244,-304.60391)">
        <path
           style="fill:#784421;fill-opacity:1;stroke:none;stroke-opacity:1"
           d="m 277.62871,187.27993 -0.40958,-2.49038 -76.30594,26.55432 0.21441,1.92274 76.50111,-25.98668"
           id="path6077"
           inkscape:connector-curvature="0" />
        <path
           style="fill:#784421;fill-opacity:1;stroke:none;stroke-opacity:1"
           d="m 201.1276,213.26661 -0.21441,-1.92274 -14.1239,-2.70208 0.23487,1.81789 14.10344,2.80693"
           id="path6079"
           inkscape:connector-curvature="0" />
        <path
           style="fill:#784421;fill-opacity:1;stroke:none;stroke-opacity:1"
           d="m 187.02416,210.45968 -0.23487,-1.81789 77.70139,-25.57512 0.42274,2.39587 -77.88926,24.99714"
           id="path6081"
           inkscape:connector-curvature="0" />
        <path
           style="fill:#784421;fill-opacity:1;stroke:none;stroke-opacity:1"
           d="m 264.91342,185.46254 -0.42274,-2.39587 12.72845,1.72288 0.40958,2.49038 -12.71529,-1.81739"
           id="path6083"
           inkscape:connector-curvature="0" />
        <path
           style="fill:#784421;fill-opacity:1;stroke:none;stroke-opacity:1"
           d="m 277.62871,187.27993 -0.40958,-2.49038 0,0 0.40958,2.49038 0,0"
           id="path6085"
           inkscape:connector-curvature="0" />
        <path
           style="fill:#784421;fill-opacity:1;stroke:none;stroke-opacity:1"
           d="m 277.62871,187.27993 -0.40958,-2.49038 0,0 0.40958,2.49038 0,0"
           id="path6087"
           inkscape:connector-curvature="0" />
      </g>
      <g
         id="g5763"
         style="display:inline;fill:#784421;fill-opacity:1;stroke:none;stroke-width:2;stroke-opacity:0.6"
         transform="translate(-510.18244,-304.60391)">
        <path
           style="fill:#784421;fill-opacity:1;stroke:none"
           id="path5765"
           d="m 337.95104,196.40374 -0.34346,-2.9388 -85.10638,31.91489 0.10871,2.30563 85.34113,-31.28172"
           inkscape:connector-curvature="0" />
        <path
           style="fill:#784421;fill-opacity:1;stroke:none"
           id="path5767"
           d="m 252.60991,227.68546 -0.10871,-2.30563 -15.95745,-2.65957 0.1289,2.18714 15.93726,2.77806"
           inkscape:connector-curvature="0" />
        <path
           style="fill:#784421;fill-opacity:1;stroke:none"
           id="path5769"
           d="m 236.67265,224.9074 -0.1289,-2.18714 86.70213,-30.85108 0.35572,2.83214 -86.92895,30.20608"
           inkscape:connector-curvature="0" />
        <path
           style="fill:#784421;fill-opacity:1;stroke:none"
           id="path5771"
           d="m 323.6016,194.70132 -0.35572,-2.83214 14.3617,1.59576 0.34346,2.9388 -14.34944,-1.70242"
           inkscape:connector-curvature="0" />
        <path
           style="fill:#784421;fill-opacity:1;stroke:none"
           id="path5773"
           d="m 337.95104,196.40374 -0.34346,-2.9388 0,0 0.34346,2.9388 0,0"
           inkscape:connector-curvature="0" />
        <path
           style="fill:#784421;fill-opacity:1;stroke:none"
           id="path5775"
           d="m 337.95104,196.40374 -0.34346,-2.9388 0,0 0.34346,2.9388 0,0"
           inkscape:connector-curvature="0" />
      </g>
      <path
         sodipodi:nodetypes="ccccc"
         style="display:inline;fill:#784421;fill-rule:evenodd;stroke:none;stroke-width:1px;stroke-linecap:butt;stroke-linejoin:miter;stroke-opacity:1"
         d="m -172.23141,-108.20017 -85.34113,31.281722 -15.93726,-2.77806 86.92895,-30.206082 14.34944,1.70242 z"
         id="path4414"
         inkscape:path-effect="#path-effect4416"
         inkscape:original-d="m -172.23141,-108.20017 -85.34113,31.281722 -15.93726,-2.77806 86.92895,-30.206082 z"
         inkscape:connector-curvature="0"
         inkscape:transform-center-x="193.30396"
         inkscape:transform-center-y="-31.970795" />
      <path
         inkscape:connector-curvature="0"
         inkscape:original-d="m -172.57487,-111.13897 -85.10638,31.914892 -15.95745,-2.65957 86.70213,-30.851082 z"
         inkscape:path-effect="#path-effect4307"
         id="path4305"
         d="m -172.57487,-111.13897 -85.10638,31.914892 -15.95745,-2.65957 86.70213,-30.851082 14.3617,1.59576 z"
         style="display:inline;fill:#c87137;fill-rule:evenodd;stroke:none;stroke-width:1px;stroke-linecap:butt;stroke-linejoin:miter;stroke-opacity:1"
         sodipodi:nodetypes="ccccc" />
      <path
         inkscape:connector-curvature="0"
         inkscape:original-d="m -232.55374,-117.32398 -76.50111,25.986682 -14.10344,-2.80693 77.88926,-24.997142 z"
         inkscape:path-effect="#path-effect4420"
         id="path4418"
         d="m -232.55374,-117.32398 -76.50111,25.986682 -14.10344,-2.80693 77.88926,-24.997142 12.71529,1.81739 z"
         style="display:inline;fill:#784421;fill-rule:evenodd;stroke:none;stroke-width:1px;stroke-linecap:butt;stroke-linejoin:miter;stroke-opacity:1"
         sodipodi:nodetypes="ccccc"
         inkscape:transform-center-x="248.28936"
         inkscape:transform-center-y="-43.79961" />
      <path
         sodipodi:nodetypes="ccccc"
         style="display:inline;fill:#c87137;fill-rule:evenodd;stroke:none;stroke-width:1px;stroke-linecap:butt;stroke-linejoin:miter;stroke-opacity:1"
         d="m -232.96332,-119.81436 -76.30594,26.554322 -14.1239,-2.70208 77.70139,-25.575122 12.72845,1.72288 z"
         id="path4311"
         inkscape:path-effect="#path-effect4313"
         inkscape:original-d="m -232.96332,-119.81436 -76.30594,26.554322 -14.1239,-2.70208 77.70139,-25.575122 z"
         inkscape:connector-curvature="0" />
      <path
         sodipodi:nodetypes="ccccc"
         style="display:inline;fill:#784421;fill-rule:evenodd;stroke:none;stroke-width:1px;stroke-linecap:butt;stroke-linejoin:miter;stroke-opacity:1"
         d="m -284.81676,-128.80212 -71.28773,21.41255 -11.56979,-4.34965 70.18895,-19.18161 12.66857,2.11871 z"
         id="path4422"
         inkscape:path-effect="#path-effect4424"
         inkscape:original-d="m -284.81676,-128.80212 -71.28773,21.41255 -11.56979,-4.34965 70.18895,-19.18161 z"
         inkscape:connector-curvature="0"
         inkscape:transform-center-x="296.67887"
         inkscape:transform-center-y="-57.715475" />
      <g
         style="display:inline;fill:#784421;fill-opacity:1;stroke:none;stroke-width:2;stroke-opacity:0.6"
         id="g8241"
         transform="translate(-510.18244,-304.60391)">
        <path
           style="fill:#784421;fill-opacity:1;stroke:none"
           d="m 224.87227,173.70001 0.49342,2.10178 -71.28773,21.41255 -0.33237,-1.57275 71.12668,-21.94158"
           id="path8243"
           inkscape:connector-curvature="0" />
        <path
           style="fill:#784421;fill-opacity:1;stroke:none"
           d="m 153.74559,195.64159 0.33237,1.57275 -11.56979,-4.34965 -0.36436,-1.48667 11.60178,4.26357"
           id="path8245"
           inkscape:connector-curvature="0" />
        <path
           style="fill:#784421;fill-opacity:1;stroke:none"
           d="m 142.14381,191.37802 0.36436,1.48667 70.18895,-19.18161 -0.50881,-2.00761 -70.0445,19.70255"
           id="path8247"
           inkscape:connector-curvature="0" />
        <path
           style="fill:#784421;fill-opacity:1;stroke:none"
           d="m 212.18831,171.67547 0.50881,2.00761 12.66857,2.11871 -0.49342,-2.10178 -12.68396,-2.02454"
           id="path8249"
           inkscape:connector-curvature="0" />
        <path
           style="fill:#784421;fill-opacity:1;stroke:none"
           d="m 224.87227,173.70001 0.49342,2.10178 0,0 -0.49342,-2.10178 0,0"
           id="path8251"
           inkscape:connector-curvature="0" />
        <path
           style="fill:#784421;fill-opacity:1;stroke:none"
           d="m 224.87227,173.70001 0.49342,2.10178 0,0 -0.49342,-2.10178 0,0"
           id="path8253"
           inkscape:connector-curvature="0" />
      </g>
      <path
         inkscape:connector-curvature="0"
         inkscape:original-d="m -285.31018,-130.9039 -71.12668,21.94158 -11.60178,-4.26357 70.0445,-19.70255 z"
         inkscape:path-effect="#path-effect4317"
         id="path4315"
         d="m -285.31018,-130.9039 -71.12668,21.94158 -11.60178,-4.26357 70.0445,-19.70255 12.68396,2.02454 z"
         style="display:inline;fill:#c87137;fill-rule:evenodd;stroke:none;stroke-width:1px;stroke-linecap:butt;stroke-linejoin:miter;stroke-opacity:1"
         sodipodi:nodetypes="ccccc" />
      <path
         inkscape:connector-curvature="0"
         inkscape:original-d="m -329.11021,-139.89608 c -48.7554,-5.10835 -122.18675,-24.02897 -65.13945,16.53866 l -12.18927,-4.08212 64.83486,-15.43733 z"
         inkscape:path-effect="#path-effect4428"
         id="path4426"
         d="m -329.11021,-139.89608 -65.13945,16.53866 -12.18927,-4.08212 64.83486,-15.43733 12.49386,2.98079 z"
         style="display:inline;fill:#784421;fill-rule:evenodd;stroke:none;stroke-width:1px;stroke-linecap:butt;stroke-linejoin:miter;stroke-opacity:1"
         sodipodi:nodetypes="ccccc"
         inkscape:transform-center-x="338.20792"
         inkscape:transform-center-y="-71.67742" />
      <g
         id="g7845"
         style="display:inline;fill:#784421;fill-opacity:1;stroke:none;stroke-width:2;stroke-opacity:0.6"
         transform="translate(-510.18244,-304.60391)">
        <path
           style="fill:#784421;fill-opacity:1;stroke:none"
           id="path7847"
           d="m 181.07224,164.70783 -0.57462,-1.7724 -65.01478,17.02215 0.44995,1.28891 65.13945,-16.53866"
           inkscape:connector-curvature="0" />
        <path
           style="fill:#784421;fill-opacity:1;stroke:none"
           id="path7849"
           d="m 115.93279,181.24649 -0.44995,-1.28891 -12.21926,-3.99145 0.47994,1.19824 12.18927,4.08212"
           inkscape:connector-curvature="0" />
        <path
           style="fill:#784421;fill-opacity:1;stroke:none"
           id="path7851"
           d="m 103.74352,177.16437 -0.47994,-1.19824 64.71838,-15.91859 0.59642,1.6795 -64.83486,15.43733"
           inkscape:connector-curvature="0" />
        <path
           style="fill:#784421;fill-opacity:1;stroke:none"
           id="path7853"
           d="m 168.57838,161.72704 -0.59642,-1.6795 12.51566,2.88789 0.57462,1.7724 -12.49386,-2.98079"
           inkscape:connector-curvature="0" />
        <path
           style="fill:#784421;fill-opacity:1;stroke:none"
           id="path7855"
           d="m 181.07224,164.70783 -0.57462,-1.7724 0,0 0.57462,1.7724 0,0"
           inkscape:connector-curvature="0" />
        <path
           style="fill:#784421;fill-opacity:1;stroke:none"
           id="path7857"
           d="m 181.07224,164.70783 -0.57462,-1.7724 0,0 0.57462,1.7724 0,0"
           inkscape:connector-curvature="0" />
      </g>
      <path
         sodipodi:nodetypes="ccccc"
         style="display:inline;fill:#c87137;fill-rule:evenodd;stroke:none;stroke-width:1px;stroke-linecap:butt;stroke-linejoin:miter;stroke-opacity:1"
         d="m -329.68483,-141.66848 -65.01478,17.02215 -12.21926,-3.99145 64.71838,-15.91859 12.51566,2.88789 z"
         id="path4319"
         inkscape:path-effect="#path-effect4321"
         inkscape:original-d="m -329.68483,-141.66848 c -48.792,-4.74599 -122.36189,-23.12054 -65.01478,17.02215 l -12.21926,-3.99145 64.71838,-15.91859 z"
         inkscape:connector-curvature="0" />
      <path
         sodipodi:nodetypes="ccccc"
         style="display:inline;fill:#784421;fill-rule:evenodd;stroke:none;stroke-width:1px;stroke-linecap:butt;stroke-linejoin:miter;stroke-opacity:1"
         d="m -368.47378,-152.55133 -61.15315,13.41327 -12.26072,-3.86222 60.86842,-12.30663 12.54545,2.75558 z"
         id="path4430"
         inkscape:path-effect="#path-effect4432"
         inkscape:original-d="m -368.47378,-152.55133 c -48.83938,-4.23056 -118.92092,-26.12168 -61.15315,13.41327 l -12.26072,-3.86222 60.86842,-12.30663 z"
         inkscape:connector-curvature="0"
         inkscape:transform-center-x="375.61407"
         inkscape:transform-center-y="-85.78276" />
      <g
         style="display:inline;fill:#784421;fill-opacity:1;stroke:none;stroke-width:2;stroke-opacity:0.6"
         id="g7463"
         transform="translate(-510.18244,-304.60391)">
        <path
           style="fill:#784421;fill-opacity:1;stroke:none"
           d="m 141.70867,152.05258 -0.66755,-1.47961 -61.051817,13.86723 0.566211,1.02565 61.153156,-13.41327"
           id="path7465"
           inkscape:connector-curvature="0" />
        <path
           style="fill:#784421;fill-opacity:1;stroke:none"
           d="m 80.555514,165.46585 -0.566211,-1.02565 -12.289074,-3.77102 0.594567,0.93445 12.260718,3.86222"
           id="path7467"
           inkscape:connector-curvature="0" />
        <path
           style="fill:#784421;fill-opacity:1;stroke:none"
           d="m 68.294796,161.60363 -0.594567,-0.93445 60.775311,-12.75851 0.68768,1.38633 -60.868424,12.30663"
           id="path7469"
           inkscape:connector-curvature="0" />
        <path
           style="fill:#784421;fill-opacity:1;stroke:none"
           d="m 129.16322,149.297 -0.68768,-1.38633 12.56558,2.6623 0.66755,1.47961 -12.54545,-2.75558"
           id="path7471"
           inkscape:connector-curvature="0" />
        <path
           style="fill:#784421;fill-opacity:1;stroke:none"
           d="m 141.70867,152.05258 -0.66755,-1.47961 0,0 0.66755,1.47961 0,0"
           id="path7473"
           inkscape:connector-curvature="0" />
        <path
           style="fill:#784421;fill-opacity:1;stroke:none"
           d="m 141.70867,152.05258 -0.66755,-1.47961 0,0 0.66755,1.47961 0,0"
           id="path7475"
           inkscape:connector-curvature="0" />
      </g>
      <path
         inkscape:connector-curvature="0"
         inkscape:original-d="m -369.14133,-154.03094 c -48.86947,-3.86759 -119.11171,-25.23745 -61.05181,13.86723 l -12.28908,-3.77102 60.77531,-12.75851 z"
         inkscape:path-effect="#path-effect4325"
         id="path4323"
         d="m -369.14133,-154.03094 -61.05181,13.86723 -12.28908,-3.77102 60.77531,-12.75851 12.56558,2.6623 z"
         style="display:inline;fill:#c87137;fill-rule:evenodd;stroke:none;stroke-width:1px;stroke-linecap:butt;stroke-linejoin:miter;stroke-opacity:1"
         sodipodi:nodetypes="ccccc" />
      <path
         style="display:inline;opacity:1;fill:#666666;fill-opacity:1"
         d="M 2.6757812 61.759766 L 2.6757812 62.310547 C 14.771187 65.109393 30.176428 68.4301 40.855469 69.818359 C 49.054304 70.884196 60.315502 71.673361 71.648438 72.277344 C 71.967981 71.954452 72.284273 71.625823 72.59375 71.285156 C 60.904448 70.794976 49.183714 70.088485 40.613281 69.054688 C 30.180057 67.796193 14.794123 64.530635 2.6757812 61.759766 z "
         transform="matrix(4.1930965,0.37660681,-0.37660681,4.1930965,-424.61915,-425.92153)"
         id="path4237" />
      <path
         style="display:inline;opacity:1;fill:#cccccc;fill-opacity:1"
         d="M 2.6757812 61.429688 L 2.6757812 61.978516 C 14.788507 64.703593 30.214301 67.930628 40.902344 69.253906 C 49.264469 70.289215 60.799741 71.019432 72.355469 71.556641 C 72.65748 71.231625 72.948387 70.890798 73.240234 70.548828 C 61.352509 70.130385 49.375912 69.490362 40.654297 68.492188 C 30.214104 67.297324 14.810535 64.126636 2.6757812 61.429688 z "
         transform="matrix(4.1930965,0.37660681,-0.37660681,4.1930965,-424.61915,-425.92153)"
         id="rect4232" />
      <path
         style="display:inline;opacity:1;fill:#666666;fill-opacity:1"
         d="M 2.6757812 64.978516 L 2.6757812 65.537109 C 14.495897 69.133625 29.439637 73.432935 39.886719 75.525391 C 46.015205 76.752871 53.892214 77.9513 62.236328 79.058594 C 62.728981 78.807524 63.220856 78.543998 63.712891 78.267578 C 54.795849 77.193832 46.285247 76.004429 39.697266 74.748047 C 29.472662 72.798131 14.525625 68.550644 2.6757812 64.978516 z "
         transform="matrix(4.1930965,0.37660681,-0.37660681,4.1930965,-424.61915,-425.92153)"
         id="path4239" />
      <path
         style="display:inline;opacity:1;fill:#cccccc;fill-opacity:1"
         d="M 2.6757812 64.638672 L 2.6757812 65.199219 C 14.521154 68.724899 29.502416 72.936715 39.96875 74.966797 C 46.34437 76.203432 54.618766 77.390547 63.332031 78.480469 C 63.80515 78.2213 64.277368 77.95134 64.748047 77.667969 C 55.484961 76.621841 46.599104 75.448125 39.773438 74.189453 C 29.531813 72.300868 14.550041 68.139761 2.6757812 64.638672 z "
         transform="matrix(4.1930965,0.37660681,-0.37660681,4.1930965,-424.61915,-425.92153)"
         id="path4235" />
    </g>
  </g>
  <g
     inkscape:groupmode="layer"
     id="layer4"
     inkscape:label="Ebene 3"
     style="display:inline">
    <path
       style="display:inline;opacity:0.73999999;fill:#ffd42a;fill-rule:evenodd;stroke:none;stroke-width:1px;stroke-linecap:butt;stroke-linejoin:miter;stroke-opacity:1;filter:url(#filter5524)"
       d="m 293.33715,10.667897 c 0,0 -20.03445,77.275754 -89.29641,99.599853 C 185.6661,116.19015 64.447522,83.546617 64.447522,83.546617 L 63.7171,51.144946 c 0,0 78.14383,5.586644 96.24785,-1.55297 35.6457,-14.057464 30.33788,-36.634426 30.33788,-36.634426 z"
       id="path5506"
       inkscape:connector-curvature="0"
       sodipodi:nodetypes="csccscc"
       transform="matrix(0.24456942,0,0,0.24456942,-13.808008,44.976694)" />
    <path
       sodipodi:nodetypes="csccscc"
       inkscape:connector-curvature="0"
       id="path5528"
       d="m 461.40346,-46.578602 c 0,0 -37.79303,75.072413 -109.25179,84.627296 C 253.46149,51.244742 182.67503,6.3428157 182.67503,6.3428157 c 0,0 0,0 0.99726,-18.8131087 42.60118,6.1355673 85.02175,6.210821 139.75388,-13.679736 52.16642,-18.958135 28.03534,-26.946304 28.03534,-26.946304 z"
       style="display:inline;opacity:0.297;fill:#ff0000;fill-rule:evenodd;stroke:none;stroke-width:1px;stroke-linecap:butt;stroke-linejoin:miter;stroke-opacity:1;filter:url(#filter5566)"
       transform="matrix(0.18239999,0,0,0.1589515,-31.427987,62.454738)" />
  </g>
  <g
     inkscape:groupmode="layer"
     id="layer5"
     inkscape:label="Ebene 4"
     style="display:inline">
    <path
       style="display:inline;opacity:1;fill:url(#linearGradient5144);fill-opacity:1"
       d="M 43,0.30078125 C 19.418,0.30078125 0.30078125,19.417 0.30078125,43 l 0,41.277344 c 0,0.786 0.635875,1.421875 1.42187495,1.421875 L 43,85.699219 C 66.582,85.699219 85.699219,66.583 85.699219,43 l 0,-41.2773438 c 0,-0.78599995 -0.635875,-1.42187495 -1.421875,-1.42187495 l -41.277344,0 z m 0,5.58203125 35.880859,0 c 0.683242,0 1.236329,0.5530861 1.236329,1.2363281 L 80.117188,43 C 80.117188,63.499863 63.498993,80.117188 43,80.117188 l -35.8808594,0 c -0.6832418,0 -1.2363281,-0.553087 -1.2363281,-1.236329 L 5.8828125,43 C 5.8828125,22.500137 22.501007,5.8828125 43,5.8828125 Z"
       id="path5184"
       inkscape:connector-curvature="0" />
  </g>
  <g
     inkscape:groupmode="layer"
     id="layer3"
     inkscape:label="Ebene 2"
     style="display:inline">
    <g
       transform="matrix(0.34716147,0,0,0.34716147,6.7413244,13.609376)"
       id="g4964"
       style="display:inline;overflow:visible;fill:#ffd5d5">
      <path
         style="fill:#ffffff"
         d="m 41.369141,14.515625 c -0.207954,-0.0084 -0.419401,0.0043 -0.632813,0.03906 -1.704562,0.278392 -2.861109,1.886208 -2.582031,3.591796 0.180921,1.117679 0.932359,1.998389 1.910156,2.396485 0.10015,0.850065 0.19802,1.584612 0.308594,2.490234 -9.128486,1.016016 -16.734706,8.167563 -17.921875,17.671875 -0.02668,0.213754 -0.03847,0.439121 -0.05078,0.66211 -0.03659,0.648786 -0.01147,1.331693 0.06445,2.041015 -1.417277,0.06464 -2.985448,0.257812 -4.658203,0.65625 -6.833295,1.62864 -10.6102758,4.086664 -10.2539046,6.009769 0.3567131,1.923446 5.8106536,3.520911 10.4882816,2.148437 1.851283,-0.543107 3.998259,-1.651712 5.958984,-2.839844 0.120728,0.320119 0.24528,0.641747 0.376953,0.962891 0.01881,0.04412 0.03588,0.08835 0.05469,0.132813 0.42785,1.03457 0.915255,2.071681 1.4375,3.103515 0.574571,1.136489 3.458391,0.378164 4.111966,1.490028 8.562647,-4.529356 15.480807,-4.304642 22.628926,2.387808 0.958303,-0.973009 3.022143,0.672055 3.899733,-0.342679 1.048935,-1.213441 2.024231,-2.44904 2.878906,-3.695313 0.03762,-0.05404 0.07346,-0.109341 0.109375,-0.164063 0.274289,-0.404594 0.537201,-0.808539 0.785156,-1.214843 0.262319,-0.431955 0.502692,-0.858674 0.730469,-1.285157 0.937441,-1.748681 1.57483,-3.443419 1.771484,-5.015624 0.03831,-0.307465 0.06161,-0.613241 0.08008,-0.917969 2.443981,0.313278 5.086866,0.47015 7.154297,0.177734 4.935843,-0.697352 9.341506,-4.487772 8.861328,-6.429687 -0.480177,-1.941573 -5.037077,-2.634337 -12.08789,-1.265625 -1.638213,0.318408 -3.110971,0.767951 -4.408203,1.273437 -1.890614,-8.033741 -8.589559,-14.443965 -17.246094,-15.52539 -0.602614,-0.07533 -1.202497,-0.113136 -1.798828,-0.134766 -0.118535,-0.966332 -0.222756,-1.769227 -0.332032,-2.699219 0.96788,-0.665545 1.524392,-1.843381 1.322266,-3.080078 -0.242397,-1.493587 -1.505263,-2.566444 -2.960941,-2.625 z"
         id="path4970"
         inkscape:connector-curvature="0"
         transform="matrix(2.923918,0,0,2.923918,-22.015728,-42.436998)"
         sodipodi:nodetypes="ccccccccccccccccccccccccccccccccc" />
    </g>
  </g>
  <g
     inkscape:groupmode="layer"
     id="layer1"
     inkscape:label="Ebene 1"
     style="display:inline">
    <g
       style="display:inline;overflow:visible"
       id="g4854"
       transform="matrix(0.34716147,0,0,0.34716147,6.7415467,13.609165)">
      <path
         id="path4836"
         d="m 115.768,46.812 c -0.971,-0.122 -1.955,-0.184 -2.925,-0.184 -11.785,10e-4 -21.774,8.831 -23.233,20.54 -1.602,12.826 7.525,24.563 20.352,26.165 0.971,0.122 1.957,0.184 2.929,0.184 11.785,0 21.78,-8.83 23.241,-20.54 0.773,-6.199 -0.92,-12.339 -4.771,-17.289 -3.855,-4.95 -9.39,-8.102 -15.593,-8.876 z"
         inkscape:connector-curvature="0"
         style="fill:none" />
      <path
         id="path4838"
         d="m 110.959,92.333 c 12.853,1.605 24.566,-7.512 26.17,-20.356 1.604,-12.846 -7.51,-24.561 -20.361,-26.165 -12.854,-1.606 -24.557,7.511 -26.16,20.356 -1.604,12.845 7.496,24.561 20.351,26.165 z"
         inkscape:connector-curvature="0"
         style="fill:#cc2929" />
      <path
         id="path4840"
         d="m 107.603,7.679 c -0.81,-4.991 -5.517,-8.371 -10.509,-7.559 -4.984,0.814 -8.367,5.517 -7.551,10.504 0.529,3.268 2.729,5.842 5.588,7.006 0.621,5.271 1.438,12.087 1.905,15.44 l 8.57,-1.194 c -0.449,-3.229 -1.257,-9.958 -1.872,-15.192 2.83,-1.946 4.46,-5.389 3.869,-9.005 z"
         inkscape:connector-curvature="0" />
      <path
         id="path4842"
         d="m 63.55,129.331 c 1.895,2.977 3.819,5.886 5.743,8.697 6.946,-3.868 15.594,-7.201 26.858,-5.794 7.302,0.912 17.468,5.122 24.983,12.102 2.592,-2.294 5.207,-4.675 7.809,-7.136 -7.393,-6.958 -17.928,-13.497 -31.406,-15.18 -13.594,-1.698 -24.991,2.209 -33.987,7.311 z"
         inkscape:connector-curvature="0" />
      <path
         id="path4844"
         d="m 74.309,143.027 c 2.23,3.126 4.384,6.067 6.395,8.802 3.697,-2.831 8.558,-3.395 13.075,-2.831 4.479,0.561 10.237,2.886 12.299,5.98 2.652,-2.189 5.496,-4.554 8.466,-7.082 -4.337,-3.718 -10.492,-8.118 -19.465,-9.238 -8.871,-1.107 -15.569,1.778 -20.77,4.369 z"
         inkscape:connector-curvature="0" />
      <path
         id="path4846"
         d="m 99.432,159.646 c -0.086,-0.316 -0.208,-0.616 -0.337,-0.914 -0.007,-0.003 -0.011,-0.005 -0.015,-0.008 0.002,-0.003 0.004,-0.005 0.008,-0.008 -0.961,-2.213 -3.047,-3.897 -5.668,-4.224 -2.488,-0.312 -4.82,0.672 -6.313,2.401 -0.224,0.26 -0.423,0.536 -0.606,0.826 -0.185,0.294 -0.334,0.611 -0.472,0.935 -0.245,0.57 -0.442,1.17 -0.524,1.816 -0.166,1.334 0.087,2.62 0.637,3.76 0.452,0.943 1.113,1.775 1.943,2.439 1.006,0.806 2.24,1.367 3.627,1.541 0.764,0.095 1.503,0.038 2.22,-0.095 2.246,-0.415 4.137,-1.858 5.081,-3.883 0.293,-0.623 0.521,-1.282 0.613,-2 0.108,-0.892 0.028,-1.763 -0.194,-2.586 z"
         inkscape:connector-curvature="0" />
      <path
         id="path4848"
         d="m 208.625,70.346 c -1.404,-5.677 -14.726,-7.706 -35.342,-3.704 -4.79,0.931 -9.097,2.25 -12.89,3.728 -5.528,-23.49 -25.117,-42.233 -50.428,-45.395 -2.488,-0.311 -4.963,-0.463 -7.41,-0.463 -29.519,0 -55.177,22.041 -58.928,52.071 -0.078,0.625 -0.107,1.28 -0.143,1.932 -0.107,1.897 -0.035,3.896 0.187,5.97 -4.144,0.189 -8.73,0.752 -13.621,1.917 -19.98,4.762 -31.025,11.95 -29.983,17.573 1.043,5.624 16.992,10.295 30.669,6.282 5.413,-1.588 11.691,-4.826 17.424,-8.3 0.353,0.936 0.717,1.872 1.102,2.811 0.055,0.129 0.106,0.259 0.161,0.389 1.251,3.025 2.671,6.057 4.198,9.074 1.68,3.323 3.496,6.623 5.407,9.874 8.756,-5.05 19.4,-8.515 31.574,-8.515 2.658,0 5.391,0.164 8.192,0.516 15.504,1.936 27.574,8.81 36.33,17.188 2.802,-2.845 5.527,-5.757 8.093,-8.724 3.067,-3.548 5.914,-7.164 8.413,-10.808 0.11,-0.158 0.216,-0.315 0.321,-0.475 0.802,-1.183 1.572,-2.367 2.297,-3.555 0.767,-1.263 1.472,-2.513 2.138,-3.76 2.741,-5.113 4.604,-10.066 5.179,-14.663 0.112,-0.899 0.179,-1.792 0.233,-2.683 7.146,0.916 14.873,1.376 20.918,0.521 14.432,-2.039 27.313,-13.123 25.909,-18.801 z m -63.907,3.703 c -2.024,16.218 -15.887,28.122 -31.828,28.122 -1.323,0 -2.658,-0.082 -4.003,-0.25 C 91.327,99.729 78.828,83.657 81.02,66.096 83.043,49.879 96.905,37.975 112.843,37.974 c 1.32,0 2.654,0.082 3.998,0.25 17.566,2.192 30.07,18.264 27.877,35.825 z"
         inkscape:connector-curvature="0" />
    </g>
  </g>
</svg>
