<?xml version="1.0" encoding="UTF-8" standalone="no"?>
<!-- Created with Inkscape (http://www.inkscape.org/) -->
<svg xmlns:dc="http://purl.org/dc/elements/1.1/" xmlns:cc="http://creativecommons.org/ns#" xmlns:rdf="http://www.w3.org/1999/02/22-rdf-syntax-ns#" xmlns:svg="http://www.w3.org/2000/svg" xmlns="http://www.w3.org/2000/svg" xmlns:xlink="http://www.w3.org/1999/xlink" xmlns:sodipodi="http://sodipodi.sourceforge.net/DTD/sodipodi-0.dtd" xmlns:inkscape="http://www.inkscape.org/namespaces/inkscape" width="86" height="86" id="svg2" version="1.1" inkscape:version="0.91 r13725" sodipodi:docname="BeRail.svg" inkscape:export-filename="/home/mo/Dokumente/Icon für HipsterFish/berail86.png" inkscape:export-xdpi="90" inkscape:export-ydpi="90">
  <defs id="defs4">
    <linearGradient id="linearGradient4659">
      <stop id="stop4661" offset="0" style="stop-color:#a1d5ff;stop-opacity:1"/>
      <stop id="stop4663" offset="1" style="stop-color:#00dbf3;stop-opacity:1"/>
    </linearGradient>
    <linearGradient id="linearGradient5860">
      <stop id="stop5862" offset="0" style="stop-color:#00f68f;stop-opacity:0.49402392"/>
      <stop id="stop5864" offset="1" style="stop-color:#005f03;stop-opacity:0.23904383"/>
    </linearGradient>
    <linearGradient id="linearGradient3789-6">
      <stop style="stop-color:#ffffff;stop-opacity:1" offset="0" id="stop3791-0"/>
      <stop style="stop-color:#fdc3c3;stop-opacity:1" offset="1" id="stop3793-4"/>
    </linearGradient>
    <clipPath id="clipPath3374" clipPathUnits="userSpaceOnUse">
      <path inkscape:connector-curvature="0" id="path3376" d="m 207.477,208.121 4707.61,0 0,4700.45 -4707.61,0 0,-4700.45 z"/>
    </clipPath>
    <filter inkscape:menu-tooltip="In and out glow with a possible offset and colorizable flood" inkscape:menu="Shadows and Glows" inkscape:label="Cutout Glow" style="color-interpolation-filters:sRGB;" id="filter4579">
      <feOffset dy="3" dx="3" id="feOffset4581"/>
      <feGaussianBlur stdDeviation="3" result="blur" id="feGaussianBlur4583"/>
      <feFlood flood-color="rgb(0,0,0)" flood-opacity="1" result="flood" id="feFlood4585"/>
      <feComposite in="flood" in2="SourceGraphic" operator="in" result="composite" id="feComposite4587"/>
      <feBlend in="blur" in2="composite" mode="normal" id="feBlend4589"/>
    </filter>
    <linearGradient inkscape:collect="always" xlink:href="#linearGradient3789-6" id="linearGradient4635" x1="0.30000001" y1="47" x2="85.699997" y2="47" gradientUnits="userSpaceOnUse" gradientTransform="matrix(0,1,-1,0,90,4)"/>
    <filter style="color-interpolation-filters:sRGB;" inkscape:label="Blur" id="filter4939">
      <feGaussianBlur stdDeviation="8 8" result="blur" id="feGaussianBlur4941"/>
    </filter>
    <linearGradient inkscape:collect="always" xlink:href="#linearGradient3789-6" id="linearGradient5082" gradientUnits="userSpaceOnUse" gradientTransform="matrix(0,0.86926441,-0.86926441,0,83.855427,9.6216307)" x1="86.032333" y1="47" x2="0.38586816" y2="47.418205"/>
    <linearGradient inkscape:collect="always" xlink:href="#linearGradient3789-6" id="linearGradient5144" gradientUnits="userSpaceOnUse" gradientTransform="matrix(0,1,-1,0,90,0)" x1="0.30000001" y1="47" x2="85.699997" y2="47"/>
    <filter inkscape:collect="always" style="color-interpolation-filters:sRGB" id="filter5159" x="-0.065019564" width="1.1300391" y="-0.080659527" height="1.1613191">
      <feGaussianBlur inkscape:collect="always" stdDeviation="5.6548242" id="feGaussianBlur5161"/>
    </filter>
  </defs>
  <sodipodi:namedview id="base" pagecolor="#ffffff" bordercolor="#666666" borderopacity="1.0" inkscape:pageopacity="0.0" inkscape:pageshadow="2" inkscape:zoom="7.5215569" inkscape:cx="39.485681" inkscape:cy="41.633526" inkscape:document-units="px" inkscape:current-layer="layer1" showgrid="false" inkscape:window-width="1920" inkscape:window-height="1015" inkscape:window-x="0" inkscape:window-y="0" inkscape:window-maximized="1" inkscape:snap-bbox="true" inkscape:snap-global="true" showguides="true" inkscape:guide-bbox="true">
    <inkscape:grid type="xygrid" id="grid2985" empspacing="5" visible="true" enabled="true" snapvisiblegridlinesonly="true"/>
  </sodipodi:namedview>
  <metadata id="metadata7">
    <rdf:RDF>
      <cc:Work rdf:about="">
        <dc:format>image/svg+xml</dc:format>
        <dc:type rdf:resource="http://purl.org/dc/dcmitype/StillImage"/>
        <dc:title/>
      </cc:Work>
    </rdf:RDF>
  </metadata>
  <g inkscape:groupmode="layer" id="layer2" inkscape:label="Ebene" style="display:inline" transform="translate(0,-4)">
    <path inkscape:connector-curvature="0" style="opacity:1;fill:url(#linearGradient4635);fill-opacity:1" id="path5132" d="M 85.7,5.723 85.7,47 C 85.7,70.583 66.582,89.7 43,89.7 l -41.277,0 C 0.937,89.7 0.3,89.063 0.3,88.277 L 0.3,47 C 0.3,23.417 19.418,4.3 43,4.3 l 41.277,0 c 0.786,0 1.423,0.637 1.423,1.423 z"/>
    <g transform="matrix(1.25,0,0,-1.25,-253.16188,384.69096)" inkscape:label="ink_ext_XXXXXX" id="g3366">
      <g transform="scale(0.1,0.1)" id="g3368"/>
    </g>
    <g id="g4806" transform="translate(34.782611,61.739129)"/>
    <path inkscape:connector-curvature="0" style="opacity:1;fill:url(#linearGradient5082);fill-opacity:1" id="path5080" d="M 80.11759,11.119373 80.11759,47 C 80.11759,67.499863 63.498993,84.11759 43,84.11759 l -35.8806268,0 C 6.4361314,84.11759 5.88241,83.563869 5.88241,82.880627 L 5.88241,47 C 5.88241,26.500137 22.501007,9.88241 43,9.88241 l 35.880627,0 c 0.683242,0 1.236963,0.553721 1.236963,1.236963 z"/>
    <g transform="matrix(0.34716147,0,0,0.34716147,6.7428131,17.589884)" id="g4863" style="overflow:visible;opacity:0.6;filter:url(#filter5159)">
      <path style="fill:none" inkscape:connector-curvature="0" d="m 115.768,46.812 c -0.971,-0.122 -1.955,-0.184 -2.925,-0.184 -11.785,10e-4 -21.774,8.831 -23.233,20.54 -1.602,12.826 7.525,24.563 20.352,26.165 0.971,0.122 1.957,0.184 2.929,0.184 11.785,0 21.78,-8.83 23.241,-20.54 0.773,-6.199 -0.92,-12.339 -4.771,-17.289 -3.855,-4.95 -9.39,-8.102 -15.593,-8.876 z" id="path4865"/>
      <path inkscape:connector-curvature="0" d="m 107.603,7.679 c -0.81,-4.991 -5.517,-8.371 -10.509,-7.559 -4.984,0.814 -8.367,5.517 -7.551,10.504 0.529,3.268 2.729,5.842 5.588,7.006 0.621,5.271 1.438,12.087 1.905,15.44 l 8.57,-1.194 c -0.449,-3.229 -1.257,-9.958 -1.872,-15.192 2.83,-1.946 4.46,-5.389 3.869,-9.005 z" id="path4869" style=""/>
      <path inkscape:connector-curvature="0" d="m 63.55,129.331 c 1.895,2.977 3.819,5.886 5.743,8.697 6.946,-3.868 15.594,-7.201 26.858,-5.794 7.302,0.912 17.468,5.122 24.983,12.102 2.592,-2.294 5.207,-4.675 7.809,-7.136 -7.393,-6.958 -17.928,-13.497 -31.406,-15.18 -13.594,-1.698 -24.991,2.209 -33.987,7.311 z" id="path4871" style=""/>
      <path inkscape:connector-curvature="0" d="m 74.309,143.027 c 2.23,3.126 4.384,6.067 6.395,8.802 3.697,-2.831 8.558,-3.395 13.075,-2.831 4.479,0.561 10.237,2.886 12.299,5.98 2.652,-2.189 5.496,-4.554 8.466,-7.082 -4.337,-3.718 -10.492,-8.118 -19.465,-9.238 -8.871,-1.107 -15.569,1.778 -20.77,4.369 z" id="path4873" style=""/>
      <path inkscape:connector-curvature="0" d="m 99.432,159.646 c -0.086,-0.316 -0.208,-0.616 -0.337,-0.914 -0.007,-0.003 -0.011,-0.005 -0.015,-0.008 0.002,-0.003 0.004,-0.005 0.008,-0.008 -0.961,-2.213 -3.047,-3.897 -5.668,-4.224 -2.488,-0.312 -4.82,0.672 -6.313,2.401 -0.224,0.26 -0.423,0.536 -0.606,0.826 -0.185,0.294 -0.334,0.611 -0.472,0.935 -0.245,0.57 -0.442,1.17 -0.524,1.816 -0.166,1.334 0.087,2.62 0.637,3.76 0.452,0.943 1.113,1.775 1.943,2.439 1.006,0.806 2.24,1.367 3.627,1.541 0.764,0.095 1.503,0.038 2.22,-0.095 2.246,-0.415 4.137,-1.858 5.081,-3.883 0.293,-0.623 0.521,-1.282 0.613,-2 0.108,-0.892 0.028,-1.763 -0.194,-2.586 z" id="path4875" style=""/>
      <path inkscape:connector-curvature="0" d="m 208.625,70.346 c -1.404,-5.677 -14.726,-7.706 -35.342,-3.704 -4.79,0.931 -9.097,2.25 -12.89,3.728 -5.528,-23.49 -25.117,-42.233 -50.428,-45.395 -2.488,-0.311 -4.963,-0.463 -7.41,-0.463 -29.519,0 -55.177,22.041 -58.928,52.071 -0.078,0.625 -0.107,1.28 -0.143,1.932 -0.107,1.897 -0.035,3.896 0.187,5.97 -4.144,0.189 -8.73,0.752 -13.621,1.917 -19.98,4.762 -31.025,11.95 -29.983,17.573 1.043,5.624 16.992,10.295 30.669,6.282 5.413,-1.588 11.691,-4.826 17.424,-8.3 0.353,0.936 0.717,1.872 1.102,2.811 0.055,0.129 0.106,0.259 0.161,0.389 1.251,3.025 2.671,6.057 4.198,9.074 1.68,3.323 3.496,6.623 5.407,9.874 8.756,-5.05 19.4,-8.515 31.574,-8.515 2.658,0 5.391,0.164 8.192,0.516 15.504,1.936 27.574,8.81 36.33,17.188 2.802,-2.845 5.527,-5.757 8.093,-8.724 3.067,-3.548 5.914,-7.164 8.413,-10.808 0.11,-0.158 0.216,-0.315 0.321,-0.475 0.802,-1.183 1.572,-2.367 2.297,-3.555 0.767,-1.263 1.472,-2.513 2.138,-3.76 2.741,-5.113 4.604,-10.066 5.179,-14.663 0.112,-0.899 0.179,-1.792 0.233,-2.683 7.146,0.916 14.873,1.376 20.918,0.521 14.432,-2.039 27.313,-13.123 25.909,-18.801 z m -63.907,3.703 c -2.024,16.218 -15.887,28.122 -31.828,28.122 -1.323,0 -2.658,-0.082 -4.003,-0.25 C 91.327,99.729 78.828,83.657 81.02,66.096 83.043,49.879 96.905,37.975 112.843,37.974 c 1.32,0 2.654,0.082 3.998,0.25 17.566,2.192 30.07,18.264 27.877,35.825 z" id="path4877" style=""/>
    </g>
    <path style="opacity:1;fill:url(#linearGradient5144);fill-opacity:1" d="M 43 0.30078125 C 19.418 0.30078125 0.30078125 19.417 0.30078125 43 L 0.30078125 84.277344 C 0.30078125 85.063344 0.93665625 85.699219 1.7226562 85.699219 L 43 85.699219 C 66.582 85.699219 85.699219 66.583 85.699219 43 L 85.699219 1.7226562 C 85.699219 0.93665625 85.063344 0.30078125 84.277344 0.30078125 L 43 0.30078125 z M 43 5.8828125 L 78.880859 5.8828125 C 79.564101 5.8828125 80.117188 6.4358986 80.117188 7.1191406 L 80.117188 43 C 80.117188 63.499863 63.498993 80.117188 43 80.117188 L 7.1191406 80.117188 C 6.4358988 80.117188 5.8828125 79.564101 5.8828125 78.880859 L 5.8828125 43 C 5.8828125 22.500137 22.501007 5.8828125 43 5.8828125 z " transform="translate(0,4)" id="path5184"/>
  </g>
  <g inkscape:groupmode="layer" id="layer3" inkscape:label="Ebene 2" style="display:inline">
    <g transform="matrix(0.34716147,0,0,0.34716147,6.7413244,13.609376)" id="g4964" style="display:inline;overflow:visible;fill:#ffd5d5">
      <path style="fill:#ffffff" d="m 41.369141,14.515625 c -0.207954,-0.0084 -0.419401,0.0043 -0.632813,0.03906 -1.704562,0.278392 -2.861109,1.886208 -2.582031,3.591796 0.180921,1.117679 0.932359,1.998389 1.910156,2.396485 0.10015,0.850065 0.19802,1.584612 0.308594,2.490234 -9.128486,1.016016 -16.734706,8.167563 -17.921875,17.671875 -0.02668,0.213754 -0.03847,0.439121 -0.05078,0.66211 -0.03659,0.648786 -0.01147,1.331693 0.06445,2.041015 -1.417277,0.06464 -2.985448,0.257812 -4.658203,0.65625 -6.833295,1.62864 -10.6102758,4.086664 -10.2539046,6.009769 0.3567131,1.923446 5.8106536,3.520911 10.4882816,2.148437 1.851283,-0.543107 3.998259,-1.651712 5.958984,-2.839844 0.120728,0.320119 0.24528,0.641747 0.376953,0.962891 0.01881,0.04412 0.03588,0.08835 0.05469,0.132813 0.42785,1.03457 0.915255,2.071681 1.4375,3.103515 0.574571,1.136489 3.458391,0.378164 4.111966,1.490028 8.562647,-4.529356 15.480807,-4.304642 22.628926,2.387808 0.958303,-0.973009 3.022143,0.672055 3.899733,-0.342679 1.048935,-1.213441 2.024231,-2.44904 2.878906,-3.695313 0.03762,-0.05404 0.07346,-0.109341 0.109375,-0.164063 0.274289,-0.404594 0.537201,-0.808539 0.785156,-1.214843 0.262319,-0.431955 0.502692,-0.858674 0.730469,-1.285157 0.937441,-1.748681 1.57483,-3.443419 1.771484,-5.015624 0.03831,-0.307465 0.06161,-0.613241 0.08008,-0.917969 2.443981,0.313278 5.086866,0.47015 7.154297,0.177734 4.935843,-0.697352 9.341506,-4.487772 8.861328,-6.429687 -0.480177,-1.941573 -5.037077,-2.634337 -12.08789,-1.265625 -1.638213,0.318408 -3.110971,0.767951 -4.408203,1.273437 -1.890614,-8.033741 -8.589559,-14.443965 -17.246094,-15.52539 -0.602614,-0.07533 -1.202497,-0.113136 -1.798828,-0.134766 -0.118535,-0.966332 -0.222756,-1.769227 -0.332032,-2.699219 0.96788,-0.665545 1.524392,-1.843381 1.322266,-3.080078 -0.242397,-1.493587 -1.505263,-2.566444 -2.960941,-2.625 z" id="path4970" inkscape:connector-curvature="0" transform="matrix(2.923918,0,0,2.923918,-22.015728,-42.436998)" sodipodi:nodetypes="ccccccccccccccccccccccccccccccccc"/>
    </g>
  </g>
  <g inkscape:groupmode="layer" id="layer1" inkscape:label="Ebene 1" style="display:inline">
    <g style="display:inline;overflow:visible" id="g4854" transform="matrix(0.34716147,0,0,0.34716147,6.7415467,13.609165)">
      <path id="path4836" d="m 115.768,46.812 c -0.971,-0.122 -1.955,-0.184 -2.925,-0.184 -11.785,10e-4 -21.774,8.831 -23.233,20.54 -1.602,12.826 7.525,24.563 20.352,26.165 0.971,0.122 1.957,0.184 2.929,0.184 11.785,0 21.78,-8.83 23.241,-20.54 0.773,-6.199 -0.92,-12.339 -4.771,-17.289 -3.855,-4.95 -9.39,-8.102 -15.593,-8.876 z" inkscape:connector-curvature="0" style="fill:none"/>
      <path id="path4838" d="m 110.959,92.333 c 12.853,1.605 24.566,-7.512 26.17,-20.356 1.604,-12.846 -7.51,-24.561 -20.361,-26.165 -12.854,-1.606 -24.557,7.511 -26.16,20.356 -1.604,12.845 7.496,24.561 20.351,26.165 z" inkscape:connector-curvature="0" style="fill:#cc2929"/>
      <path id="path4840" d="m 107.603,7.679 c -0.81,-4.991 -5.517,-8.371 -10.509,-7.559 -4.984,0.814 -8.367,5.517 -7.551,10.504 0.529,3.268 2.729,5.842 5.588,7.006 0.621,5.271 1.438,12.087 1.905,15.44 l 8.57,-1.194 c -0.449,-3.229 -1.257,-9.958 -1.872,-15.192 2.83,-1.946 4.46,-5.389 3.869,-9.005 z" inkscape:connector-curvature="0"/>
      <path id="path4842" d="m 63.55,129.331 c 1.895,2.977 3.819,5.886 5.743,8.697 6.946,-3.868 15.594,-7.201 26.858,-5.794 7.302,0.912 17.468,5.122 24.983,12.102 2.592,-2.294 5.207,-4.675 7.809,-7.136 -7.393,-6.958 -17.928,-13.497 -31.406,-15.18 -13.594,-1.698 -24.991,2.209 -33.987,7.311 z" inkscape:connector-curvature="0"/>
      <path id="path4844" d="m 74.309,143.027 c 2.23,3.126 4.384,6.067 6.395,8.802 3.697,-2.831 8.558,-3.395 13.075,-2.831 4.479,0.561 10.237,2.886 12.299,5.98 2.652,-2.189 5.496,-4.554 8.466,-7.082 -4.337,-3.718 -10.492,-8.118 -19.465,-9.238 -8.871,-1.107 -15.569,1.778 -20.77,4.369 z" inkscape:connector-curvature="0"/>
      <path id="path4846" d="m 99.432,159.646 c -0.086,-0.316 -0.208,-0.616 -0.337,-0.914 -0.007,-0.003 -0.011,-0.005 -0.015,-0.008 0.002,-0.003 0.004,-0.005 0.008,-0.008 -0.961,-2.213 -3.047,-3.897 -5.668,-4.224 -2.488,-0.312 -4.82,0.672 -6.313,2.401 -0.224,0.26 -0.423,0.536 -0.606,0.826 -0.185,0.294 -0.334,0.611 -0.472,0.935 -0.245,0.57 -0.442,1.17 -0.524,1.816 -0.166,1.334 0.087,2.62 0.637,3.76 0.452,0.943 1.113,1.775 1.943,2.439 1.006,0.806 2.24,1.367 3.627,1.541 0.764,0.095 1.503,0.038 2.22,-0.095 2.246,-0.415 4.137,-1.858 5.081,-3.883 0.293,-0.623 0.521,-1.282 0.613,-2 0.108,-0.892 0.028,-1.763 -0.194,-2.586 z" inkscape:connector-curvature="0"/>
      <path id="path4848" d="m 208.625,70.346 c -1.404,-5.677 -14.726,-7.706 -35.342,-3.704 -4.79,0.931 -9.097,2.25 -12.89,3.728 -5.528,-23.49 -25.117,-42.233 -50.428,-45.395 -2.488,-0.311 -4.963,-0.463 -7.41,-0.463 -29.519,0 -55.177,22.041 -58.928,52.071 -0.078,0.625 -0.107,1.28 -0.143,1.932 -0.107,1.897 -0.035,3.896 0.187,5.97 -4.144,0.189 -8.73,0.752 -13.621,1.917 -19.98,4.762 -31.025,11.95 -29.983,17.573 1.043,5.624 16.992,10.295 30.669,6.282 5.413,-1.588 11.691,-4.826 17.424,-8.3 0.353,0.936 0.717,1.872 1.102,2.811 0.055,0.129 0.106,0.259 0.161,0.389 1.251,3.025 2.671,6.057 4.198,9.074 1.68,3.323 3.496,6.623 5.407,9.874 8.756,-5.05 19.4,-8.515 31.574,-8.515 2.658,0 5.391,0.164 8.192,0.516 15.504,1.936 27.574,8.81 36.33,17.188 2.802,-2.845 5.527,-5.757 8.093,-8.724 3.067,-3.548 5.914,-7.164 8.413,-10.808 0.11,-0.158 0.216,-0.315 0.321,-0.475 0.802,-1.183 1.572,-2.367 2.297,-3.555 0.767,-1.263 1.472,-2.513 2.138,-3.76 2.741,-5.113 4.604,-10.066 5.179,-14.663 0.112,-0.899 0.179,-1.792 0.233,-2.683 7.146,0.916 14.873,1.376 20.918,0.521 14.432,-2.039 27.313,-13.123 25.909,-18.801 z m -63.907,3.703 c -2.024,16.218 -15.887,28.122 -31.828,28.122 -1.323,0 -2.658,-0.082 -4.003,-0.25 C 91.327,99.729 78.828,83.657 81.02,66.096 83.043,49.879 96.905,37.975 112.843,37.974 c 1.32,0 2.654,0.082 3.998,0.25 17.566,2.192 30.07,18.264 27.877,35.825 z" inkscape:connector-curvature="0"/>
    </g>
  </g>
</svg>